<?xml version="1.0" encoding="UTF-8"?>
<svg id="_图层_2" data-name="图层 2" xmlns="http://www.w3.org/2000/svg" viewBox="0 0 2075.26 501.15">
  <defs>
    <style>
      .cls-1 {
        fill: #fff;
      }
    </style>
  </defs>
  <g id="_图层_1-2" data-name="图层 1">
    <g>
      <polygon class="cls-1" points="1752.05 265.3 1751.86 184.34 1714.14 184.67 1694.14 501.13 1579.62 501.05 1600.17 184.53 1579.67 184.26 1579.67 56.77 1751.85 56.75 1751.96 .02 1900.94 0 1900.97 91.76 2075.24 91.77 2075.26 182.79 1902.22 182.82 1902.22 501.09 1752.61 501.15 1752.36 395.45 1752.05 265.3"/>
      <polygon class="cls-1" points="2070.02 497.12 1957.31 497.38 1932.65 208.12 2046.57 207.99 2070.02 497.12"/>
      <polygon class="cls-1" points="2069.99 67.12 1932.83 67.25 1932.72 .01 2048.42 .01 2069.99 67.12"/>
    </g>
    <g>
      <polygon class="cls-1" points="676.35 197.22 1030.17 197.22 1030.12 277.08 574.6 277.08 529.56 231.21 529.91 34.13 530.25 .17 881.11 .18 863.59 76.12 825.38 76.44 676.33 77.18 676.35 197.22"/>
      <polygon class="cls-1" points="699.08 173.61 698.83 103.3 881.66 101.39 905.32 .2 1030.21 .17 1030.21 173.59 699.08 173.61"/>
      <polygon class="cls-1" points="985.62 500.89 858.3 500.95 859.95 440.68 711.88 440.65 702.82 500.92 568.25 500.93 574.44 438.92 529.48 439.83 529.46 325.7 585.41 325.57 589.2 303.6 731.6 303.63 729.46 325.61 853.37 325.63 853.9 303.62 984.41 303.61 984.64 325.54 1030.22 325.75 1030.21 439.85 984.77 439.96 985.62 500.89"/>
    </g>
    <polygon class="cls-1" points="391.4 500.94 251.76 359.27 114.42 500.98 .03 500.89 0 400.24 118.14 288.23 .03 288.04 .02 173.85 172.82 173.83 174.04 114.2 0 114.21 .06 .17 503.49 .17 503.52 115.59 333.15 115.59 333.11 175.23 503.51 175.2 503.51 290.58 393.74 290.74 503.51 406.36 503.5 500.9 391.4 500.94"/>
    <g>
      <polygon class="cls-1" points="1553.63 501.13 1089.34 501.12 1056.22 457.34 1056.21 406.27 1277.01 266.4 1056.16 266.26 1056.21 173.04 1553.65 173.04 1553.67 257.1 1305.91 405.36 1553.68 405.47 1553.63 501.13"/>
      <polygon class="cls-1" points="1507.61 149.78 1356.5 149.8 1357.52 127.11 1253.62 126.79 1253.09 149.78 1103.39 149.8 1103.57 127.33 1056.2 127.07 1056.16 21.5 1102.1 21.29 1102.35 .01 1254.34 0 1254.68 21.38 1356.8 21.38 1357.21 0 1506.85 0 1507.11 21.34 1553.66 21.39 1553.66 126.96 1507.68 127.1 1507.61 149.78"/>
    </g>
  </g>
</svg>